<svg width="41" height="40" viewBox="0 0 41 40" fill="none" xmlns="http://www.w3.org/2000/svg">
<path d="M40 20C40 30.4703 31.293 39 20.5 39C9.70703 39 1 30.4703 1 20C1 9.52972 9.70703 1 20.5 1C31.293 1 40 9.52972 40 20Z" stroke="black" stroke-width="2"/>
<path d="M17.7823 32.9281V21.024H14.5986V16.7385H17.7823C17.7823 16.7385 17.7823 14.9926 17.7823 13.0879C17.7823 10.231 19.6926 7.53271 23.9906 7.53271C25.7416 7.53271 27.0151 7.69144 27.0151 7.69144L26.8559 11.6595C26.8559 11.6595 25.5824 11.6595 24.1498 11.6595C22.5579 11.6595 22.3987 12.2943 22.3987 13.5641C22.3987 14.5164 22.3987 11.5007 22.3987 16.7385H27.0151L26.8559 21.024H22.3987V32.9281H17.7823V32.9281Z" fill="#08090A"/>
</svg>
