<svg width="22" height="19" viewBox="0 0 22 19" fill="none" xmlns="http://www.w3.org/2000/svg">
<path d="M18.0203 7.68009L11.6036 2.83113C11.258 2.56996 10.742 2.56996 10.3964 2.83113L3.97972 7.68009C3.78079 7.83042 3.66669 8.04759 3.66669 8.27588V15.0416C3.66669 15.4789 4.07709 15.8333 4.58335 15.8333H8.25002C8.75628 15.8333 9.16669 15.4789 9.16669 15.0416V11.875C9.16669 11.4378 9.57709 11.0833 10.0834 11.0833H11.9167C12.4229 11.0833 12.8334 11.4378 12.8334 11.875V15.0416C12.8334 15.4789 13.2438 15.8333 13.75 15.8333H17.4167C17.9229 15.8333 18.3334 15.4789 18.3334 15.0416V8.27588C18.3334 8.04759 18.2192 7.83042 18.0203 7.68009Z" stroke="#14181F" stroke-linecap="round" stroke-linejoin="round"/>
</svg>
