<svg width="41" height="40" viewBox="0 0 41 40" fill="none" xmlns="http://www.w3.org/2000/svg">
<path d="M39.9965 20C39.9965 30.4704 31.2901 39 20.4982 39C9.70632 39 1 30.4704 1 20C1 9.52964 9.70632 1 20.4982 1C31.2901 1 39.9965 9.52964 39.9965 20Z" stroke="black" stroke-width="2"/>
<path d="M10.1327 17.4292C10.1327 13.658 10.1327 11.7723 11.3043 10.6008C12.4758 9.4292 14.3615 9.4292 18.1327 9.4292H23.7956C27.5668 9.4292 29.4524 9.4292 30.624 10.6008C31.7956 11.7723 31.7956 13.658 31.7956 17.4292V23.0307C31.7956 26.802 31.7956 28.6876 30.624 29.8592C29.4524 31.0307 27.5668 31.0307 23.7956 31.0307H18.1327C14.3615 31.0307 12.4758 31.0307 11.3043 29.8592C10.1327 28.6876 10.1327 26.802 10.1327 23.0307V17.4292Z" stroke="black" stroke-width="2"/>
<ellipse cx="26.3798" cy="14.8299" rx="1.80524" ry="1.80013" fill="#33363F"/>
<path d="M24.7781 20.23C24.7781 22.3262 23.0732 24.0304 20.9641 24.0304C18.855 24.0304 17.1501 22.3262 17.1501 20.23C17.1501 18.1338 18.855 16.4297 20.9641 16.4297C23.0732 16.4297 24.7781 18.1338 24.7781 20.23Z" stroke="#33363F" stroke-width="2"/>
</svg>
