<?xml version="1.0" encoding="UTF-8"?>
<svg width="640px" height="478px" viewBox="0 0 640 478" version="1.1" xmlns="http://www.w3.org/2000/svg" xmlns:xlink="http://www.w3.org/1999/xlink">
    <title>Royal Escapes</title>
    <g id="Royal-Escapes" stroke="none" stroke-width="1" fill="none" fill-rule="evenodd">
        <g id="Sort" transform="translate(18.000000, 56.000000)" fill="#000000">
            <path d="M100.833333,184.098859 L100.833333,183.338403 C99.2777778,183.338403 98.5,182.197719 98.5,179.91635 L98.5,114.707224 L108.5,114.707224 L118.833333,176.114068 C119.055556,178.395437 118.388889,179.536122 116.833333,179.536122 L116.833333,180.296578 L128,178.395437 L127.666667,177.634981 C126.111111,177.634981 125.222222,176.494297 125,174.212928 L114.666667,113.946768 C118.222222,112.932826 120.75,111.158428 122.25,108.623574 C123.75,106.08872 124.444444,103.363752 124.333333,100.448669 C124.333333,98.5475285 124.055556,96.7097592 123.5,94.9353612 C122.944444,93.1609632 122.055556,91.608365 120.833333,90.2775665 C119.611111,88.9467681 118,87.9011407 116,87.1406844 C114,86.3802281 111.5,86 108.5,86 L90,86 L90,86.5703422 C91.5555556,86.5703422 92.3333333,87.774398 92.3333333,90.1825095 L92.3333333,181.81749 C92.3333333,184.098859 91.5555556,185.239544 90,185.239544 L90,186 L100.833333,184.098859 Z M107.661017,110 L98,110 L98,91 L107.661017,91 C110.259887,91 112.632768,91.5757576 114.779661,92.7272727 C116.926554,93.8787879 118,96.5016835 118,100.59596 C118,102.515152 117.689266,104.114478 117.067797,105.393939 C116.446328,106.673401 115.655367,107.632997 114.694915,108.272727 C113.734463,108.912458 112.632768,109.360269 111.389831,109.616162 C110.146893,109.872054 108.903955,110 107.661017,110 L107.661017,110 Z" id="r" fill-rule="nonzero"></path>
            <path d="M155.919356,173 C162.837484,173 167.747124,169.922495 170.648274,162.10397 C173.549425,154.285444 175,143.389414 175,129.415879 C175,115.331443 173.549425,104.407687 170.648274,96.6446125 C167.747124,88.8815375 162.837484,85 155.919356,85 C149.112811,85 144.286858,88.8815375 141.441499,96.6446125 C138.59614,104.407687 137.117669,115.331443 137.006086,129.415879 C136.894504,143.389414 138.317183,154.285444 141.274125,162.10397 C144.231067,169.922495 149.112811,173 155.919356,173 Z M156.41403,169 C154.127235,169 152.194349,168.055556 150.615371,166.166667 C149.036394,164.277778 147.756878,161.583333 146.776823,158.083333 C145.796768,154.583333 145.08895,150.416667 144.65337,145.583333 C144.21779,140.75 144,135.333333 144,129.333333 C144,117.333333 144.952831,107.777778 146.858494,100.666667 C148.764156,93.5555556 151.949335,90 156.41403,90 C160.98762,90 164.25447,93.5555556 166.21458,100.666667 C168.174691,107.777778 169.100298,117.333333 168.991403,129.333333 C168.991403,135.333333 168.746389,140.75 168.256362,145.583333 C167.766334,150.416667 167.031293,154.583333 166.051238,158.083333 C165.071183,161.583333 163.791667,164.277778 162.212689,166.166667 C160.633712,168.055556 158.700825,169 156.41403,169 Z" id="o" fill-rule="nonzero"></path>
            <path d="M203.73358,165.906824 L203.73358,165.243197 C202.074512,165.243197 201.244978,164.247756 201.244978,162.256874 L201.244978,111.157572 L211.697108,89.7555919 C212.139526,88.8707555 212.664898,88.1241748 213.273223,87.5158498 C213.881548,86.9075248 214.628128,86.6033623 215.512965,86.6033623 L215.512965,86.1056418 L204.397208,86.1056418 L204.397208,86.6033623 C206.16688,86.6033623 206.498694,87.6541055 205.392648,89.7555919 L198.092748,104.687206 L191.124662,89.7555919 C190.018616,87.6541055 190.295127,86.6033623 191.954196,86.6033623 L191.954196,86.1056418 L181.004345,86.1056418 L181.004345,86.6033623 C182.442204,86.6033623 183.714157,87.6541055 184.820202,89.7555919 L195.106425,111.157572 L195.106425,163.915942 C195.106425,165.906824 194.332194,166.902265 192.78373,166.902265 L192.78373,167.565893 L203.73358,165.906824 Z" id="y" fill-rule="nonzero"></path>
            <path d="M232.171429,161.347639 L232.171429,160.686695 C230.528571,160.686695 229.816667,159.695279 230.035714,157.712446 L235.95,111.281116 L252.214286,111.281116 L258.128571,153.581545 C258.128571,155.564378 257.416667,156.555794 255.992857,156.555794 L255.992857,157.216738 L267,155.564378 L267,154.903433 C265.247619,154.903433 264.371429,153.912017 264.371429,151.929185 L256.157143,89.8004292 C256.047619,87.8175966 256.704762,86.8261803 258.128571,86.8261803 L258.128571,86 L230.035714,86 L230.035714,86.8261803 C231.459524,86.8261803 232.061905,87.8175966 231.842857,89.8004292 L223.957143,159.364807 C223.738095,161.347639 222.752381,162.339056 221,162.339056 L221,163 L232.171429,161.347639 Z M251,106 L236,106 L237.630435,90 L249.369565,90 L251,106 Z" id="a" fill-rule="nonzero"></path>
            <path d="M304.273116,148.486608 L308.586693,141.518521 L307.923066,141.020801 C307.038229,142.237451 305.959835,143.066985 304.687883,143.509403 C303.41593,143.951821 302.005722,144.17303 300.457259,144.17303 L288.677874,145.832099 L288.677874,89.7555919 C288.677874,87.6541055 289.452106,86.6033623 291.00057,86.6033623 L291.00057,86.1056418 L280.216626,86.1056418 L280.216626,86.6033623 C281.654485,86.6033623 282.373415,87.6541055 282.373415,89.7555919 L282.373415,146.495726 C282.373415,148.486608 281.654485,152.800185 280.216626,152.800185 L280.216626,153.463812 L304.273116,148.486608 Z" id="l" fill-rule="nonzero"></path>
            <polygon id="E" fill-rule="nonzero" points="81.6979959 266.114546 81.2241435 240.526519 45.685217 239.578814 46.1590693 221.098572 66.0608682 221.572425 66.5347206 199.775217 46.1590693 198.827512 47.5806264 180.189319 79.3287341 180.189319 78.3810294 154.12744 19.1494851 156.970554 19.1494851 266.618913"></polygon>
            <path d="M118.552524,266.618913 L118.980923,266.023005 C123.395004,265.944182 127.572616,265.195365 131.513759,263.776553 C135.454902,262.357742 138.804874,260.406876 141.563674,257.923956 C144.322474,255.441035 146.490103,252.544295 148.06656,249.233735 C149.643018,245.923175 150.431246,244.819655 150.431246,241.193803 C150.352423,237.646774 149.524783,234.612094 147.948326,232.089762 C146.371869,229.56743 144.401297,227.695387 142.036611,226.473633 C139.671925,225.251878 137.051065,224.246887 134.17403,223.458658 C131.296996,222.67043 128.577607,222.11867 126.015864,221.803378 C123.454121,221.488087 121.168258,221.093972 119.158275,220.621035 C117.148292,220.148098 115.828009,219.517515 115.197426,218.729286 C114.093906,216.837538 113.818026,214.9852 114.369786,213.172274 C114.921546,211.359349 116.00536,209.822303 117.621229,208.561137 C119.237098,207.299971 120.675615,206.787622 121.936781,207.024091 C123.197947,207.26056 124.10441,208.029083 124.65617,209.32966 C125.20793,210.630237 125.404987,211.773169 125.247341,212.758454 C125.089695,213.74374 125.050284,214.315206 125.129107,214.472852 L146.056577,210.925823 C146.450692,204.935285 145.504817,199.85121 143.218954,195.673599 C141.428245,192.377065 139.538272,190.76711 137,189.548828 C134.622203,188.407569 131.736532,187.53473 126.074981,188.106604 C114.369786,189.288947 108.812774,189.288947 104.083402,192.12657 C95.3390865,197.373159 91.3535094,207.181737 90.7229265,218.138115 C90.4864579,221.685144 91.2352751,223.025133 92.9693781,225.70511 C94.7034811,228.385087 96.9696385,229.863016 99.7678501,231.321239 C102.566062,232.779462 105.581036,234.060334 108.812774,235.163854 C112.044511,236.267374 115.03978,237.11472 117.79858,237.705891 L118.189075,237.791014 C120.768245,238.362972 122.864826,239.024297 124.478818,239.774991 C126.17351,240.56322 126.86321,241.430271 126.547918,242.376146 C125.996158,244.346717 123.966469,245.351709 120.458852,245.39112 C116.951235,245.430532 113.187443,244.681715 109.167477,243.144669 C105.147511,241.607623 102.073419,239.814403 99.9452016,237.765008 L89.3041149,255.500153 C94.2699554,259.047182 99.3540301,261.707453 104.556339,263.480968 C109.758648,265.254482 114.566843,266.101828 118.980923,266.023005 L118.552524,266.618913 Z" id="S" fill-rule="nonzero"></path>
            <path d="M195.629517,266.612267 C203.597839,266.612267 210.778594,264.295894 217.171782,259.663149 C223.564971,255.030404 227.688114,248.868853 229.541212,241.178496 L203.134565,234.507343 L202.717618,235.480219 C202.439653,236.036149 202.022706,236.800552 201.466776,237.773428 C200.910847,238.746305 200.285426,239.696017 199.590515,240.622566 C198.895603,241.549115 198.038545,242.383009 197.019341,243.124249 C196.000137,243.865488 194.980933,244.328762 193.961729,244.514072 C189.514294,244.977347 186.526173,240.668894 184.997367,231.588713 C183.468561,222.508533 183.630707,218.8255 185.483806,209.421028 C187.336904,200.016555 190.162878,195.175336 193.961729,194.897372 C196.000137,194.804717 197.714253,195.1985 199.104076,196.078722 C200.4939,196.958943 201.443613,198.001311 201.953215,199.205825 C202.462817,200.410338 202.833436,201.823326 203.065073,203.444786 C203.296711,205.066247 203.389366,206.178106 203.343038,206.780363 C203.296711,207.38262 203.22722,207.915385 203.134565,208.37866 L228.151388,197.954983 C227.966079,195.453301 227.224839,192.812636 225.927671,190.032989 C224.630502,187.253342 222.846895,184.450531 220.57685,181.624557 C219.496833,180.280046 218.582069,179.596781 217.72644,178.982056 C216.783657,178.304714 215.839672,177.710668 213.158393,176.408842 C208.043701,173.925537 205.941406,174.536457 199.104076,174.536457 C192.266746,174.536457 180.761899,176.976449 177.085971,177.697665 C175.176678,178.866232 172.76692,180.236122 169.570326,183.525371 C166.373732,186.81462 165.076563,189.338077 162.899173,193.785513 C160.721783,198.232948 159.146649,202.958348 158.173773,207.961713 C157.200896,212.965078 156.760786,218.107425 156.85344,223.388754 C157.03875,231.82035 158.266428,233.696612 160.536473,240.136128 C162.806518,246.575644 165.817802,251.671663 169.570326,255.424187 C173.32285,259.176711 177.399665,261.979521 181.800773,263.83262 C186.201881,265.685718 190.811462,266.612267 195.629517,266.612267 Z" id="C" fill-rule="nonzero"></path>
            <path d="M288.314927,262.6875 L321,262.6875 L294.95783,160 L255.439722,166.090711 L234,266 L261.963416,266 L264.377504,251.183889 L287.069926,251.183889 L288.314927,262.6875 Z M267,231 L272.806452,190 L274.741935,190 L282,230.513834 L267,231 Z" id="A" fill-rule="nonzero"></path>
            <path d="M353.722517,263 L353.722517,225.295619 C365.489222,223.752165 375.496419,219.232049 383.74411,211.735272 C392.651615,203.466767 397.380291,193.765055 397.930137,182.630136 C398.589952,171.274723 394.576076,162.289615 385.888509,155.674811 C372.912143,145.862852 353.28264,144.374522 327,151.209819 L327,263 L353.722517,263 Z M353.847346,198 L353.491049,197.99637 L353,170.086016 C359.656436,169.535516 364.321398,171.627416 366.994885,176.361717 C369.668372,181.096017 369.668372,185.912893 366.994885,190.812344 C364.321398,195.711795 359.820119,198.10647 353.491049,197.99637 L353.847346,198 Z" id="P" fill-rule="nonzero"></path>
            <polygon id="E" fill-rule="nonzero" transform="translate(435.663923, 203.809694) rotate(-1.000000) translate(-435.663923, -203.809694) " points="468.037493 263.441761 468.535191 234.928661 431.206155 233.93322 431.703876 214.522121 452.608136 215.019842 453.105856 192.1247 431.703876 191.129259 433.197037 171.552254 466.544309 171.552254 465.548868 144.177628 403.333809 147.163951 402.792656 262.302908"></polygon>
            <path d="M517.857694,247.540042 L518.458826,247.532982 C524.652681,247.422377 530.514722,246.371634 536.044949,244.380752 C541.575177,242.38987 546.27587,239.652408 550.147029,236.168364 C554.018189,232.684321 557.059814,228.619604 559.271905,223.974213 C561.483996,219.328822 562.590041,214.462222 562.590041,209.374412 C562.479437,204.397208 561.318089,200.138932 559.105998,196.599587 C556.893907,193.060241 554.128793,190.433383 550.810657,188.719013 C547.49252,187.004642 543.814919,185.594434 539.777853,184.488389 C535.740787,183.382343 531.92493,182.608111 528.330282,182.165693 C524.735634,181.723275 521.528102,181.170252 518.707686,180.506625 C515.88727,179.842998 514.034644,178.958161 513.149808,177.852116 C511.601344,175.197606 511.214228,172.5984 511.98846,170.054495 C512.762692,167.51059 514.283504,165.353802 516.550897,163.584129 C518.818291,161.814456 520.836824,161.095526 522.606496,161.42734 C524.376169,161.759154 525.648122,162.837548 526.422353,164.662523 C527.196585,166.487498 527.473097,168.091264 527.251888,169.473821 C527.030678,170.856378 526.975376,171.658261 527.085981,171.87947 L527.085981,171.87947 L556.451489,166.902265 C557.004511,158.496319 555.677257,151.362326 552.469725,145.500285 C547.603125,136.541316 539.584295,131.619414 528.413235,130.734578 C517.35278,129.960346 507.066557,133.22318 497.554566,140.52308 C485.941088,149.482049 479.691931,161.648549 478.807095,177.022582 C478.475281,181.999786 479.526024,186.368666 481.959325,190.129221 C484.392625,193.889775 487.572505,196.793145 491.498967,198.839329 C495.425428,200.885513 499.656052,202.682837 504.190839,204.231301 C508.725626,205.779764 512.928598,206.968763 516.799758,207.798297 L517.347702,207.917743 C520.966803,208.720315 523.908733,209.64829 526.173493,210.701667 C528.551491,211.807712 529.519281,213.024362 529.076863,214.351617 C528.302631,217.116731 525.454564,218.526939 520.532661,218.582241 C515.610759,218.637543 510.329391,217.5868 504.688559,215.430011 C499.047727,213.273223 494.73415,210.756969 491.747827,207.881251 L491.747827,207.881251 L476.816213,232.767274 C483.7843,237.744479 490.918293,241.477383 498.218193,243.965985 C505.518094,246.454587 512.264971,247.643586 518.458826,247.532982 L517.857694,247.540042 Z" id="S" fill-rule="nonzero"></path>
            <path d="M489.944864,298.038607 C489.944864,298.038607 493.580534,291.88052 498.406008,291.964749 C500.206361,291.996175 501.640826,293.414449 501.610823,295.133275 C501.580853,296.850291 500.260092,298.21866 499.052309,298.197578 C500.277077,298.218957 501.532261,299.634101 501.502259,301.352928 C501.472288,303.069943 499.9892,304.437291 498.188848,304.405866 C493.363374,304.321637 489.944864,298.038607 489.944864,298.038607 Z M518.795997,294.82293 C520.447698,293.104154 520.966918,288.598722 518.201748,286.656444 C515.438419,284.716051 512.326253,285.682864 511.407952,287.703546 C509.246793,283.809229 512.373225,279.232552 518.316366,279.338143 C520.124938,286.139601 525.06862,289.478331 529.924026,289.926318 C524.385494,292.203644 520.547603,298.873184 520.547603,298.873184 C520.547603,298.873184 524.150327,305.676307 529.606008,308.145537 C524.737991,308.420095 519.678893,311.586079 517.63593,318.320308 C511.692724,318.218422 508.72792,313.535422 511.023672,309.7189 C511.870861,311.772253 514.94739,312.84709 517.776787,311.002465 C520.608025,309.159725 520.246391,304.637065 518.655647,302.863546 C517.066843,301.086353 512.07925,299.833606 507.467875,302.37545 C506.39261,302.970104 505.486119,303.884608 504.770925,305.010014 L504.994643,292.193199 C505.670125,293.342879 506.544149,294.288462 507.598038,294.918428 C512.117895,297.619658 517.14617,296.541738 518.795997,294.82293 Z M533.765095,263.583114 C547.831514,257.235429 551.052065,267.255951 551.052065,267.255951 C551.052065,267.255951 546.953497,265.981631 544.718949,269.120612 C543.104667,271.389485 542.432072,275.151602 546.885322,278.262029 C548.709752,279.537114 551.502314,279.306313 553.995106,277.909801 C553.354071,280.92395 554.068661,283.44865 555.340907,285.403764 C555.07479,285.384406 554.810682,285.355887 554.540608,285.351173 C546.714005,285.214559 540.259067,291.408202 540.123253,299.188952 C539.987472,306.967863 546.22229,313.384845 554.048894,313.521459 C554.318968,313.526174 554.583942,313.505051 554.850573,313.494992 C553.510869,315.404514 552.708604,317.902737 553.244056,320.937422 C550.80152,319.454763 548.018746,319.124805 546.150928,320.335442 C541.591774,323.292235 542.132695,327.073695 543.666812,329.397524 C545.790417,332.614415 549.930994,331.482071 549.930994,331.482071 C549.930994,331.482071 546.362661,341.385932 532.526343,334.551203 C523.085712,329.884271 524.94827,318.904181 528.663019,317.043472 C530.390918,323.530754 537.847886,321.203862 538.794794,316.885605 C539.226908,314.921619 539.401862,310.622991 535.070241,308.8131 C537.265847,308.329117 538.929302,306.423407 538.969834,304.101316 C539.017394,301.376583 537.098824,299.134321 535.224953,299.101612 C537.072926,299.133869 539.094415,296.964059 539.142008,294.237487 C539.18254,291.915397 537.586574,289.954633 535.409197,289.394319 C539.801376,287.734863 539.776581,283.430909 539.413207,281.456717 C538.617581,277.108043 531.246364,274.522324 529.293178,280.941674 C525.64563,278.952456 524.167439,267.912214 533.765095,263.583114 Z M561.924944,267.729395 C561.133108,268.010188 560.376097,268.430429 559.66449,268.981839 C559.712789,268.349431 559.728575,267.701216 559.665954,267.019463 C559.627418,266.580256 559.556428,266.121857 559.472087,265.659838 C559.973911,266.709906 560.857597,267.485571 561.924944,267.729395 Z M553.727158,308.003915 C548.917777,307.919967 545.086441,303.952502 545.170389,299.143121 C545.254337,294.33374 549.221802,290.502404 554.031183,290.586352 C558.840564,290.6703 562.6719,294.637765 562.587952,299.447146 C562.504004,304.256527 558.536539,308.087863 553.727158,308.003915 Z M575.987057,278.52965 C579.042779,281.771976 580.88145,287.928605 577.926293,291.169941 C575.620258,288.265251 572.669021,288.596635 570.864854,290.667432 C569.267377,292.497512 569.464929,297.828705 573.873026,299.64145 C569.404382,301.297428 569.020895,306.618478 570.55353,308.503194 C572.28436,310.633872 575.222202,311.069873 577.628268,308.243787 C580.468409,311.59175 578.416058,317.676814 575.249041,320.810523 C571.551578,324.472851 565.48497,325.945954 562.034626,323.829022 C559.682393,322.389477 558.793122,318.233192 561.182485,316.364058 C562.141275,317.719112 566.051301,318.742782 567.306925,314.370495 C568.015674,311.897679 566.62466,310.062841 564.566201,309.301229 C567.178052,306.823343 568.824272,303.382298 568.891087,299.55449 C568.957965,295.723036 567.4309,292.230248 564.908992,289.662752 C566.992777,288.973442 568.447042,287.184622 567.824993,284.690401 C566.722724,280.276957 562.779355,281.163546 561.773858,282.484312 C559.451183,280.532929 560.484964,276.410212 562.886035,275.051812 C566.408094,273.06023 572.419628,274.742335 575.987057,278.52965 Z M586.313203,297.353765 C586.456531,297.356267 586.592494,297.336711 586.728393,297.320808 C585.646758,298.683478 585.03422,299.69981 585.03422,299.69981 C585.03422,299.69981 585.612853,300.736935 586.648177,302.138383 C586.509042,302.11768 586.373812,302.095218 586.230484,302.092716 C585.149715,302.073851 584.204643,302.605589 583.671342,303.411321 C582.678836,301.776707 581.205749,300.369445 579.225536,299.600247 C581.231419,298.898799 582.75269,297.545631 583.801638,295.946651 C584.306527,296.768677 585.232433,297.3349 586.313203,297.353765 Z M560.792198,330.944113 C559.715328,331.148702 558.80616,331.894377 558.268597,332.927464 C558.368926,332.467212 558.455743,332.013493 558.509525,331.57612 C558.595834,330.895621 558.602709,330.24589 558.57652,329.614197 C559.269074,330.191521 560.010064,330.637689 560.792198,330.944113 Z M310.526067,299.546194 L458.721933,303.27825 L458.696496,304.735574 C458.651769,307.297942 460.355122,309.427156 462.480749,309.464259 C462.654195,309.467287 462.818997,309.436779 462.987392,309.411899 C462.459196,310.804807 462.233283,312.221538 462.313472,313.549024 C462.650578,319.191239 466.4893,321.010904 469.825126,320.870682 C473.114726,320.735217 475.755981,317.350187 475.448215,314.362512 C475.118532,311.150039 471.166968,310.402256 469.455634,311.585337 C469.678361,307.073112 474.913601,306.289091 479.562502,305.787872 C484.21328,305.284832 490.407371,307.726121 492.554855,309.366037 C494.700494,311.005921 495.236638,313.493114 493.873627,316.820704 C492.510584,320.150149 488.151374,320.656424 486.306299,318.292902 C489.502507,318.009289 489.754889,314.018743 489.592381,312.860449 C489.334892,311.010561 486.615179,308.950775 483.761522,309.06603 C478.728374,309.269359 477.372527,315.041525 478.658298,318.88829 C480.128263,323.285397 485.533146,326.634679 492.090684,324.855527 C496.880882,323.555559 499.054913,318.07031 499.882019,315.202596 C500.132184,315.251475 500.384195,315.300386 500.644363,315.304927 C502.089125,315.330145 503.407539,314.663222 504.364009,313.58381 C504.642313,315.615818 505.305577,317.693494 506.4435,319.647773 C509.323236,324.594358 514.97565,325.076938 517.82157,324.981949 C518.438509,334.366202 525.755945,343.932325 538.248701,344.832904 C549.959949,345.671621 555.478742,340.27443 557.547244,335.019173 C557.538116,335.119165 557.514324,335.213338 557.512544,335.315314 C557.468982,337.810934 559.444901,339.868865 561.92849,339.912216 C564.410233,339.955535 566.458614,337.967849 566.502175,335.472228 C566.531043,333.81837 565.659311,332.369496 564.351897,331.560297 C570.582138,332.03627 577.602803,328.256598 580.767077,324.198181 C585.617335,317.976977 585.965136,311.269155 585.422319,307.578168 C585.713888,307.687118 586.020865,307.759245 586.347459,307.764945 C587.867872,307.791484 589.119697,306.604092 589.210686,305.092273 C591.407864,307.480487 594.404223,309.763952 597.89158,309.824824 C600.640872,309.872813 602.906819,307.686766 602.954749,304.940842 C603.002712,302.193063 601.089398,299.932212 599.220249,299.899586 C601.061721,299.931729 603.080384,297.74322 603.128379,294.993587 C603.176309,292.247663 600.988002,289.985721 598.23871,289.937732 C594.751353,289.87686 591.677128,292.054363 589.398006,294.360734 C589.359769,292.850368 588.150179,291.618157 586.629765,291.591618 C586.303171,291.585918 585.993832,291.649141 585.698671,291.745995 C586.369971,288.0762 586.256449,281.362181 581.626295,274.973641 C578.60552,270.810972 571.724796,266.784942 565.481771,267.041338 C566.814784,266.278228 567.734673,264.862482 567.763541,263.208623 C567.80707,260.714857 565.829306,258.656894 563.347563,258.613575 C560.863974,258.570224 558.817438,260.557942 558.773909,263.051709 C558.772129,263.153684 558.792589,263.250484 558.798222,263.350735 C556.914418,258.024635 551.587378,252.436274 539.853928,252.869472 C527.335605,253.327917 519.688709,262.636546 518.746453,271.995437 C515.905582,271.801186 510.239769,272.086205 507.189186,276.927421 C505.983753,278.840797 505.248351,280.895914 504.899333,282.915117 C503.981117,281.802982 502.686781,281.090453 501.242019,281.065235 C500.981851,281.060694 500.728255,281.102634 500.476568,281.140898 C499.750015,278.247919 497.768741,272.690139 493.026829,271.223788 C486.53541,269.215011 481.016932,272.373625 479.394373,276.718606 C477.975167,280.516301 479.128742,286.332269 484.151729,286.711129 C486.999624,286.925904 489.789566,284.96229 490.111458,283.122515 C490.314292,281.970599 490.201299,277.97553 487.016968,277.578688 C488.943405,275.280999 493.282259,275.940954 494.528275,279.31594 C495.774357,282.687218 495.151738,285.154184 492.950175,286.718187 C490.746734,288.284013 484.471249,290.505789 479.840828,289.8426 C475.212251,289.179442 470.007562,288.213192 469.942477,283.694088 C471.611448,284.938027 475.586734,284.326753 476.028297,281.129597 C476.440177,278.152628 473.918634,274.679336 470.635798,274.427294 C467.306866,274.172593 463.407009,275.855326 462.873198,281.482339 C462.746729,282.806218 462.923029,284.231825 463.402291,285.642318 C463.234867,285.611576 463.071263,285.573481 462.897817,285.570454 C460.77219,285.533351 458.995566,287.601822 458.950808,290.166044 L458.925403,291.621514 L268.296336,287.148784 C265.10605,287.093097 262.451196,289.671109 262.39524,292.876851 C262.339315,296.080738 264.902581,298.749833 268.092867,298.80552 L276.30753,298.948907 L275.748354,330.984072 L271.690842,330.913248 L271.548443,339.071295 L283.726515,339.283864 L284.42809,299.090652 L289.358364,299.17671 L288.741549,334.51403 L296.860263,334.655743 L297.477079,299.318423 L302.407353,299.404481 L301.705777,339.597693 L313.88385,339.810262 L314.026249,331.652215 L309.966891,331.581359 L310.526067,299.546194 Z" id="Fill-19"></path>
            <g id="crown-copy" transform="translate(143.000000, 0.000000)">
                <path d="M85.4437849,39.8372714 C83.6613001,43.6346165 81.9252087,47.4512888 80.2387664,51.2955715 C79.8684328,52.125723 79.5021688,52.9613966 79.1407883,53.7970702 C78.6931323,54.7468667 78.1893158,55.6800969 77.607363,56.5617878 C76.5281051,58.2579843 75.1389924,59.7167318 73.6503327,60.9214639 C73.4370856,61.0981702 68.6644684,60.9214639 66.5,60.9214639 C53.7734665,60.9214639 57.0737855,60.9214639 30.805658,60.9214639 C26.5147504,60.9214639 21.4080735,60.9214639 15.3920792,60.9214639 C14.9012854,59.2068604 12.5979434,53.9986259 12.0876155,52.2941462 C10.2489702,46.116788 8.29963175,39.9753232 6.23960019,33.8660706 C5.83101234,32.652135 5.41835489,31.4326774 5,30.2178215 C5.53067585,30.1110614 6.0613517,30.0098234 6.59691107,29.9085854 C6.61563123,29.9159482 6.98108132,31.2338828 7.6387287,33.1942184 C9.59702026,39.0807475 14.148461,50.7525677 19.6904424,50.1147683 C26.2066861,49.500898 26.8431715,35.6635051 26.7292227,28.7369857 C26.6917824,26.4149543 26.5705083,24.8706148 26.5566717,24.8586503 C27.2924554,24.8181551 28.0274251,24.7841023 28.7623949,24.7610937 C28.761581,24.7721378 28.812858,26.2198411 28.985409,28.4047411 C29.534805,35.324818 31.3425214,49.6509143 36.7965994,49.3306341 C43.8557277,49.0996274 45.6308873,28.4599618 46.0191271,18.4005867 C46.1444708,15.163732 46.1249367,13.0193273 46.0931938,13 L48.0775308,13.151857 C48.0490436,13.1665825 47.7983563,15.2962617 47.5785979,18.5257537 C46.8883937,28.5676422 46.448063,49.298422 53.4192879,50.6126752 C58.8660407,51.7861156 62.2071823,37.4627803 63.4500382,30.8105239 C63.8211857,28.8216575 64.0100152,27.506484 64.0108291,27.4834753 C64.7368458,27.6242882 65.466932,27.7715434 66.1929487,27.9234004 C66.1636476,27.9326039 65.8177315,29.2818302 65.4278639,31.3608904 C64.2273318,37.8171133 62.6336764,51.3195005 68.9765551,53.6820271 C75.246181,56.1982513 81.4490655,44.6690847 84.1016308,39.0015978 C84.9399684,37.2179685 85.4242508,36.0169177 85.4494824,36.0067939 C85.9646937,36.1890223 86.4799051,36.3703304 87,36.5580808 C86.4782773,37.6496105 85.9614381,38.7402197 85.4437849,39.8372714 Z" id="Fill-1"></path>
                <path d="M69.9906521,26.786638 C69.8319413,29.267359 67.6936514,31.1493253 65.2133335,30.9906611 C62.7330156,30.8319968 60.8506315,28.692925 61.0093423,26.212204 C61.1668228,23.732641 63.3063431,21.8506748 65.786661,22.009339 C68.2682092,22.1680032 70.149363,24.3059169 69.9906521,26.786638" id="Fill-3"></path>
                <path d="M90.9906521,35.786638 C90.8319413,38.267359 88.6936514,40.1493253 86.2133335,39.9906611 C83.7330156,39.8319968 81.8506315,37.692925 82.0093423,35.212204 C82.1668228,32.732641 84.3063431,30.8506748 86.786661,31.009339 C89.2682092,31.1680032 91.149363,33.3059169 90.9906521,35.786638" id="Fill-3"></path>
                <path d="M30.9906576,21.786638 C30.8319467,24.267359 28.6924252,26.1493253 26.2133361,25.9906611 C23.7330167,25.8319968 21.8506314,23.692925 22.0093424,21.212204 C22.166823,18.732641 24.3063445,16.8506748 26.7866639,17.009339 C29.2669833,17.1680032 31.1493686,19.3059169 30.9906576,21.786638" id="Fill-8"></path>
                <path d="M8.99065878,26.786638 C8.8319671,29.267359 6.69270486,31.1493253 4.21391625,30.9906611 C1.73389746,30.8319968 -0.148259649,28.692925 0.00920186085,26.212204 C0.167893539,23.732641 2.30715577,21.8506748 4.78717456,22.009339 C7.26719334,22.1680032 9.14935046,24.307075 8.99065878,26.786638" id="Fill-10"></path>
                <path d="M54.9824867,9.04217852 C54.6839545,13.7270711 50.6424053,17.2806848 45.9583301,16.9825294 C41.2727395,16.6829473 37.717631,12.6428694 38.0176785,7.95797682 C38.3177261,3.27308422 42.3577599,-0.281956078 47.0418351,0.0176259694 C51.7274257,0.317208017 55.2810188,4.35728592 54.9824867,9.04217852" id="Fill-12"></path>
            </g>
        </g>
        <text id="copenhagen" font-family="aliensandcows, aliens and cows" font-size="50" font-weight="normal" letter-spacing="2.1" fill="#000000">
            <tspan x="37.5" y="377">copenhagen</tspan>
        </text>
    </g>
</svg>